<svg width="458" height="458" viewBox="0 0 458 458" fill="none" xmlns="http://www.w3.org/2000/svg">
<path d="M47.967 314.978C52.0175 323.483 56.6608 325.149 61.8661 333L225 382L396.134 339.543C401.339 331.692 405.985 323.483 410.035 314.978L244.414 339.543L47.967 314.978Z" fill="#28374E" fill-opacity="0.55"/>
<path d="M213.587 421.668C219.801 424.251 229 429.375 229 429.375C229 429.375 238.199 424.251 244.414 421.668C260.725 414.889 285.665 413.481 298.903 413.239H159.098C172.337 413.481 197.276 414.889 213.587 421.668Z" fill="#28374E" fill-opacity="0.55"/>
<path d="M118 61L204.5 51.5L338 61C299.605 58.1438 286.5 33 229 28.625C159.098 37.5 158.439 57.8976 118 61Z" fill="#28374E" fill-opacity="0.55"/>
<path d="M428.99 241.283C429.235 237.217 429.375 233.126 429.375 229C429.375 224.874 429.234 220.783 428.99 216.717L307.885 241.283L159.098 199.5L31.9658 192.5C29.0162 208.563 28.026 224.991 29.0104 241.283L150.114 265.848L286.5 290.413L428.99 241.283Z" fill="#28374E" fill-opacity="0.55"/>
<path d="M61.8661 118.457C56.6614 126.308 52.0169 134.517 47.967 143.022L213.587 151.522L350.054 183.5L419.773 167.587C412.982 150.46 406.371 133.901 396.132 118.457L189 93.8914L61.8661 118.457Z" fill="#28374E" fill-opacity="0.55"/>
</svg>
