<svg width="32" height="32" viewBox="0 0 32 32" fill="none" xmlns="http://www.w3.org/2000/svg">
<rect width="32" height="32" rx="16" fill="#C2C2C2"/>
<path d="M3.3514 22.0072C3.63441 22.6014 3.95896 23.175 4.32265 23.7236H27.6775C28.0412 23.175 28.3657 22.6014 28.6487 22.0072H3.3514Z" fill="#28374E"/>
<path d="M14.9231 29.4615C15.3573 29.642 16 30 16 30C16 30 16.6427 29.642 17.0769 29.4615C18.2166 28.9879 19.9591 28.8895 20.8841 28.8726H11.116C12.041 28.8895 13.7835 28.9879 14.9231 29.4615Z" fill="#28374E"/>
<path d="M2.02692 15.1418C2.00976 15.4259 2 15.7117 2 16C2 16.2883 2.00976 16.5741 2.02692 16.8582H29.9731C29.9902 16.5741 30 16.2883 30 16C30 15.7117 29.9902 15.4259 29.9731 15.1418H2.02692Z" fill="#28374E"/>
<path d="M16 2C16 2 15.3573 2.358 14.9231 2.53846C13.7834 3.01214 12.0409 3.11048 11.1159 3.1274H20.8841C19.9591 3.11048 18.2166 3.01214 17.0769 2.53846C16.6427 2.358 16 2 16 2Z" fill="#28374E"/>
<path d="M4.32252 8.27644C3.95887 8.82502 3.63436 9.39856 3.3514 9.99279H28.6486C28.3656 9.39855 28.041 8.82502 27.6773 8.27644H4.32252Z" fill="#28374E"/>
</svg>
