<svg width="32" height="32" viewBox="0 0 32 32" fill="none" xmlns="http://www.w3.org/2000/svg">
<path d="M5.15662 8.82812C4.81895 9.33752 4.51762 9.87009 4.25488 10.4219H27.7451C27.4823 9.87009 27.181 9.33751 26.8433 8.82812H5.15662Z" fill="#8FA0A8"/>
<path d="M4.25488 21.5781C4.51766 22.1299 4.81904 22.6625 5.15675 23.1719H26.8434C27.1811 22.6625 27.4825 22.1299 27.7453 21.5781H4.25488Z" fill="#8FA0A8"/>
<path d="M16 3C16 3 15.4032 3.33242 15 3.5C13.9418 3.93984 12.3237 4.03116 11.4648 4.04688H20.5352C19.6763 4.03116 18.0582 3.93984 17 3.5C16.5968 3.33242 16 3 16 3Z" fill="#D9D9D9"/>
<path d="M15 28.5C15.4032 28.6676 16 29 16 29C16 29 16.5968 28.6676 17 28.5C18.0582 28.0602 19.6763 27.9688 20.5352 27.9531H11.4649C12.3238 27.9688 13.9418 28.0602 15 28.5Z" fill="#D9D9D9"/>
<path d="M3.025 15.2031C3.00906 15.4669 3 15.7323 3 16C3 16.2677 3.00906 16.5331 3.025 16.7969H28.975C28.9909 16.5331 29 16.2677 29 16C29 15.7323 28.9909 15.4669 28.975 15.2031H3.025Z" fill="#D9D9D9"/>
</svg>
