<svg width="32" height="32" viewBox="0 0 32 32" fill="none" xmlns="http://www.w3.org/2000/svg">
<g clip-path="url(#clip0_3161_2)">
<rect width="32" height="32" rx="16" fill="#464646"/>
<path d="M-2.06942 22.8654C-1.66513 23.5445 -1.20148 24.2 -0.681923 24.8269H32.6821C33.2017 24.2 33.6653 23.5445 34.0696 22.8654H-2.06942Z" fill="gray"/>
<path d="M14.4615 31.3846C15.0818 31.5909 16 32 16 32C16 32 16.9182 31.5909 17.5385 31.3846C19.1665 30.8433 21.6559 30.7309 22.9772 30.7115H9.02287C10.3443 30.7309 12.8335 30.8433 14.4615 31.3846Z" fill="gray"/>
<path d="M-3.96154 15.0192C-3.98606 15.3438 -4 15.6705 -4 16C-4 16.3295 -3.98606 16.6562 -3.96154 16.9808H35.9615C35.9861 16.6562 36 16.3295 36 16C36 15.6705 35.986 15.3438 35.9615 15.0192H-3.96154Z" fill="gray"/>
<path d="M16 0C16 0 15.0818 0.409137 14.4615 0.615385C12.8335 1.15673 10.3441 1.26912 9.02278 1.28846H22.9772C21.6559 1.26912 19.1665 1.15673 17.5385 0.615385C16.9182 0.409137 16 0 16 0Z" fill="gray"/>
<path d="M-0.682115 7.17308C-1.20161 7.80002 -1.6652 8.45549 -2.06942 9.13462H34.0694C33.6651 8.45549 33.2015 7.80002 32.6819 7.17308H-0.682115Z" fill="gray"/>
</g>
<defs>
<clipPath id="clip0_3161_2">
<rect width="32" height="32" rx="16" fill="gray"/>
</clipPath>
</defs>
</svg>
