<svg width="32" height="32" viewBox="0 0 32 32" fill="none" xmlns="http://www.w3.org/2000/svg">
<path d="M5.15662 8.82812C4.81895 9.33752 4.51762 9.87009 4.25488 10.4219H27.7451C27.4823 9.87009 27.181 9.33751 26.8433 8.82812H5.15662Z" fill="#8FA0A8"/>
<path d="M4.25488 21.5781C4.51766 22.1299 4.81904 22.6625 5.15675 23.1719H26.8434C27.1811 22.6625 27.4825 22.1299 27.7453 21.5781H4.25488Z" fill="#8FA0A8"/>
<path d="M10.882 27.9531C12.4529 28.6266 14.1827 29 16 29C17.8173 29 19.5472 28.6266 21.1179 27.9531H10.882Z" fill="#8FA0A8"/>
<path d="M3.025 15.2031C3.00906 15.4669 3 15.7323 3 16C3 16.2677 3.00906 16.5331 3.025 16.7969H28.975C28.9909 16.5331 29 16.2677 29 16C29 15.7323 28.9909 15.4669 28.975 15.2031H3.025Z" fill="#8FA0A8"/>
<path d="M16 3C14.1827 3 12.4528 3.37344 10.8821 4.04688H21.1179C19.5472 3.37344 17.8173 3 16 3Z" fill="#8FA0A8"/>
</svg>
