<svg version="1.1" xmlns="http://www.w3.org/2000/svg" xmlns:xlink="http://www.w3.org/1999/xlink" width="1560" height="804"><defs/><g><path fill="none" stroke="#02063B" paint-order="fill stroke markers" d=" M 20 438.1297838167099 L 21 439.91628811416354 L 22 441.6998748950747 L 23 443.48040691911206 L 24 445.2577471809966 L 25 447.03175892104343 L 26 448.8023056356849 L 27 450.5692510879742 L 28 452.33245931806806 L 29 454.0917946536886 L 30 455.8471217205626 L 31 457.59830545283813 L 32 459.3452111034774 L 33 461.087704254625 L 34 462.8256508279509 L 35 464.55891709496706 L 36 466.2873696873176 L 37 468.010875607041 L 38 469.7293022368035 L 39 471.4425173501039 L 40 473.1503891214475 L 41 474.85278613648995 L 42 476.5495774021489 L 43 478.24063235668325 L 44 479.9258208797398 L 45 481.6050133023652 L 46 483.2780804169837 L 47 484.944893487339 L 48 486.6053242584001 L 49 488.2592449662302 L 50 489.9065283478173 L 51 491.54704765086694 L 52 493.1806766435553 L 53 494.8072896242419 L 54 496.42676143114244 L 55 498.0389674519591 L 56 499.643783633469 L 57 501.24108649107 L 58 502.83075311828196 L 59 504.4126611962041 L 60 505.9866890029271 L 61 507.5527154228989 L 62 509.11061995624436 L 63 510.66028272803703 L 64 512.2015844975232 L 65 513.734406667297 L 66 515.2586312924261 L 67 516.7741410895271 L 68 518.2808194457898 L 69 519.7785504279507 L 70 521.2672187912129 L 71 522.7467099881144 L 72 524.2169101773416 L 73 525.6777062324893 L 74 527.1289857507654 L 75 528.5706370616394 L 76 530.0025492354356 L 77 531.4246120918682 L 78 532.8367162085199 L 79 534.238752929261 L 80 535.6306143726099 L 81 537.0121934400352 L 82 538.3833838241953 L 83 539.7440800171194 L 84 541.0941773183249 L 85 542.4335718428749 L 86 543.7621605293706 L 87 545.0798411478822 L 88 546.3865123078152 L 89 547.6820734657114 L 90 548.9664249329857 L 91 550.2394678835968 L 92 551.5011043616519 L 93 552.7512372889429 L 94 553.9897704724174 L 95 555.2166086115797 L 96 556.4316573058239 L 97 557.6348230616982 L 98 558.826013300098 L 99 560.0051363633902 L 100 561.1721015224656 L 101 562.3268189837204 L 102 563.4691998959652 L 103 564.5991563572619 L 104 565.7166014216875 L 105 566.8214491060241 L 106 567.9136143963754 L 107 568.9930132547072 L 108 570.0595626253152 L 109 571.1131804412146 L 110 572.1537856304557 L 111 573.1812981223616 L 112 574.1956388536896 L 113 575.1967297747144 L 114 576.1844938552346 L 115 577.1588550904987 L 116 578.1197385070543 L 117 579.0670701685169 L 118 580.0007771812586 L 119 580.9207877000173 L 120 581.827030933425 L 121 582.7194371494547 L 122 583.5979376807862 L 123 584.4624649300897 L 124 585.3129523752273 L 125 586.149334574371 L 126 586.9715471710394 L 127 587.7795268990487 L 128 588.5732115873811 L 129 589.3525401649688 L 130 590.1174526653924 L 131 590.8678902314967 L 132 591.6037951199179 L 133 592.3251107055273 L 134 593.031781485789 L 135 593.7237530850296 L 136 594.4009722586229 L 137 595.0633868970868 L 138 595.7109460300926 L 139 596.3435998303872 L 140 596.9612996176272 L 141 597.5639978621246 L 142 598.1516481885036 L 143 598.7242053792701 L 144 599.2816253782896 L 145 599.8238652941785 L 146 600.3508834036035 L 147 600.8626391544923 L 148 601.3590931691542 L 149 601.8402072473099 L 150 602.3059443690304 L 151 602.7562686975866 L 152 603.1911455822058 L 153 603.6105415607383 L 154 604.0144243622324 L 155 604.4027629094173 L 156 604.7755273210944 L 157 605.1326889144365 L 158 605.474220207195 L 159 605.8000949198145 L 160 606.1102879774546 L 161 606.4047755119202 L 162 606.6835348634967 L 163 606.9465445826949 L 164 607.1937844319006 L 165 607.4252353869322 L 166 607.6408796385047 L 167 607.8407005935993 L 168 608.024682876741 L 169 608.1928123311816 L 170 608.345076019988 L 171 608.4814622270393 L 172 608.6019604579268 L 173 608.7065614407624 L 174 608.7952571268918 L 175 608.8680406915137 L 176 608.9249065342049 L 177 608.9658502793518 L 178 608.9908687764861 L 179 608.9999601005283 L 180 608.9931235519348 L 181 608.9703596567524 L 182 608.9316701665779 L 183 608.8770580584228 L 184 608.8065275344843 L 185 608.7200840218227 L 186 608.6177341719429 L 187 608.4994858602828 L 188 608.3653481856078 L 189 608.2153314693103 L 190 608.0494472546153 L 191 607.8677083056928 L 192 607.670128606675 L 193 607.4567233605808 L 194 607.2275089881455 L 195 606.9825031265576 L 196 606.7217246281019 L 197 606.4451935587083 L 198 606.1529311964083 L 199 605.8449600296973 L 200 605.5213037558046 L 201 605.1819872788701 L 202 604.8270367080272 L 203 604.4564793553945 L 204 604.0703437339746 L 205 603.6686595554588 L 206 603.2514577279425 L 207 602.8187703535455 L 208 602.3706307259428 L 209 601.9070733278024 L 210 601.4281338281323 L 211 600.9338490795355 L 212 600.4242571153743 L 213 599.8993971468444 L 214 599.359309559957 L 215 598.8040359124317 L 216 598.2336189304986 L 217 597.648102505611 L 218 597.0475316910672 L 219 596.4319526985454 L 220 595.8014128945463 L 221 595.1559607967491 L 222 594.4956460702786 L 223 593.8205195238828 L 224 593.1306331060243 L 225 592.4260399008824 L 226 591.7067941242688 L 227 590.9729511194552 L 228 590.2245673529161 L 229 589.461700409983 L 230 588.6844089904137 L 231 587.8927529038751 L 232 587.0867930653422 L 233 586.2665914904097 L 234 585.4322112905206 L 235 584.5837166681106 L 236 583.7211729116668 L 237 582.8446463907048 L 238 581.9542045506621 L 239 581.0499159077071 L 240 580.1318500434685 L 241 579.2000775996805 L 242 578.2546702727474 L 243 577.2957008082265 L 244 576.323242995231 L 245 575.3373716607523 L 246 574.3381626639016 L 247 573.3256928900738 L 248 572.3000402450308 L 249 571.2612836489071 L 250 570.2095030301372 L 251 569.1447793193056 L 252 568.0671944429189 L 253 566.976831317103 L 254 565.8737738412217 L 255 564.7581068914214 L 256 563.6299163141011 L 257 562.4892889193056 L 258 561.3363124740463 L 259 560.1710756955476 L 260 558.9936682444215 L 261 557.8041807177669 L 262 556.6027046421998 L 263 555.3893324668098 L 264 554.1641575560473 L 265 552.9272741825388 L 266 551.6787775198331 L 267 550.4187636350787 L 268 549.1473294816305 L 269 547.8645728915911 L 270 546.5705925682817 L 271 545.2654880786479 L 272 543.9493598455985 L 273 542.6223091402778 L 274 541.2844380742739 L 275 539.9358495917608 L 276 538.5766474615779 L 277 537.2069362692448 L 278 535.8268214089144 L 279 534.4364090752628 L 280 533.035806255318 L 281 531.6251207202282 L 282 530.2044610169685 L 283 528.7739364599889 L 284 527.3336571228032 L 285 525.883733829519 L 286 524.4242781463101 L 287 522.9554023728323 L 288 521.4772195335819 L 289 519.989843369199 L 290 518.493388327716 L 291 516.9879695557507 L 292 515.4737028896468 L 293 513.9507048465596 L 294 512.419092615492 L 295 510.878984048276 L 296 509.33049765050487 L 297 507.7737525724149 L 298 506.20886859971665 L 299 504.6359661443784 L 300 503.05516623536045 L 301 501.4665905093028 L 302 499.87036120116545 L 303 498.2666011348228 L 304 496.6554337136131 L 305 495.0369829108426 L 306 493.4113732602469 L 307 491.77872984640766 L 308 490.1391782951289 L 309 488.4928447637693 L 310 486.8398559315363 L 311 485.18033898973727 L 312 483.51442163199323 L 313 481.8422320444136 L 314 480.16389889573213 L 315 478.4795513274068 L 316 476.7893189436825 L 317 475.0933318016189 L 318 473.3917204010826 L 319 471.6846156747057 L 320 469.9721489778117 L 321 468.2544520783071 L 322 466.5316571465434 L 323 464.80389674514623 L 324 463.0713038188158 L 325 461.3340116840968 L 326 459.5921540191208 L 327 457.8458648533194 L 328 456.0952785571119 L 329 454.3405298315657 L 330 452.58175369803126 L 331 450.81908548775357 L 332 449.05266083145784 L 333 447.28261564891415 L 334 445.5090861384782 L 335 443.73220876661185 L 336 441.9521202573825 L 337 440.1689575819422 L 338 438.38285794798907 L 339 436.59395878920867 L 340 434.80239775470005 L 341 433.00831269838324 L 342 431.21184166839254 L 343 429.41312289645384 L 344 427.6122947872484 L 345 425.8094959077633 L 346 424.00486497662865 L 347 422.1985408534445 L 348 420.3906625280953 L 349 418.5813691100558 L 350 416.77079981768674 L 351 414.9590939675227 L 352 413.14639096355205 L 353 411.33283028649026 L 354 409.51855148304804 L 355 407.7036941551926 L 356 405.88839794940696 L 357 404.0728025459438 L 358 402.2570476480782 L 359 400.44127297135765 L 360 398.6256182328513 L 361 396.8102231404 L 362 394.99522738186533 L 363 393.18077061438197 L 364 391.366992453611 L 365 389.5540324629975 L 366 387.74203014303106 L 367 385.93112492051256 L 368 384.1214561378249 L 369 382.3131630422118 L 370 380.506384775063 L 371 378.70126036120774 L 372 376.8979286982176 L 373 375.09652854571846 L 374 373.29719851471395 L 375 371.5000770569194 L 376 369.70530245410873 L 377 367.9130128074743 L 378 366.1233460270001 L 379 364.3364398208507 L 380 362.55243168477455 L 381 360.7714588915246 L 382 358.9936584802954 L 383 357.21916724617876 L 384 355.4481217296375 L 385 353.68065820599935 L 386 351.9169126749713 L 387 350.1570208501745 L 388 348.4011181487019 L 389 346.64933968069835 L 390 344.90182023896443 L 391 343.1586942885844 L 392 341.4200959565798 L 393 339.6861590215892 L 394 337.9570169035736 L 395 336.2328026535513 L 396 334.51364894335904 L 397 332.7996880554445 L 398 331.09105187268665 L 399 329.3878718682487 L 400 327.69027909546105 L 401 325.9984041777375 L 402 324.31237729852467 L 403 322.63232819128405 L 404 320.9583861295103 L 405 319.29067991678346 L 406 317.62933787685853 L 407 315.9744878437911 L 408 314.3262571521013 L 409 312.6847726269754 L 410 311.0501605745076 L 411 309.422546771981 L 412 307.80205645818944 L 413 306.18881432380124 L 414 304.582944501764 L 415 302.9845705577539 L 416 301.39381548066706 L 417 299.81080167315616 L 418 298.2356509422126 L 419 296.66848448979306 L 420 295.10942290349413 L 421 293.5585861472729 L 422 292.016093552217 L 423 290.4820638073616 L 424 288.95661495055776 L 425 287.43986435938876 L 426 285.9319287421391 L 427 284.4329241288142 L 428 282.94296586221174 L 429 281.4621685890472 L 430 279.9906462511317 L 431 278.52851207660484 L 432 277.07587857122223 L 433 275.63285750969834 L 434 274.19955992710624 L 435 272.7760961103335 L 436 271.36257558959653 L 437 269.95910713001166 L 438 268.56579872322743 L 439 267.18275757911385 L 440 265.8100901175137 L 441 264.4479019600536 L 442 263.0962979220168 L 443 261.7553820042785 L 444 260.4252573853026 L 445 259.10602641320327 L 446 257.7977905978691 L 447 256.5006506031526 L 448 255.21470623912433 L 449 253.94005645439287 L 450 252.6767993284914 L 451 251.42503206433037 L 452 250.18485098071855 L 453 248.95635150495127 L 454 247.739628165468 L 455 246.5347745845784 L 456 245.34188347125885 L 457 244.16104661401832 L 458 242.99235487383612 L 459 241.83589817716992 L 460 240.69176550903686 L 461 239.560044906166 L 462 238.4408234502247 L 463 237.33418726111717 L 464 236.2402214903589 L 465 235.15901031452395 L 466 234.09063692876785 L 467 233.03518354042635 L 468 231.99273136268977 L 469 230.9633606083539 L 470 229.94715048364768 L 471 228.94417918213912 L 472 227.95452387871822 L 473 226.9782607236588 L 474 226.0154648367587 L 475 225.06621030156012 L 476 224.1305701596489 L 477 223.20861640503395 L 478 222.3004199786082 L 479 221.40605076268946 L 480 220.52557757564358 L 481 219.65906816658867 L 482 218.8065892101826 L 483 217.96820630149244 L 484 217.14398395094682 L 485 216.33398557937264 L 486 215.53827351311475 L 487 214.75690897924034 L 488 213.9899521008274 L 489 213.23746189233893 L 490 212.49949625508185 L 491 211.7761119727514 L 492 211.06736470706232 L 493 210.37330899346557 L 494 209.6939982369523 L 495 209.02948470794396 L 496 208.3798195382712 L 497 207.74505271723865 L 498 207.12523308777872 L 499 206.5204083426935 L 500 205.93062502098473 L 501 205.355928504273 L 502 204.79636301330544 L 503 204.25197160455357 L 504 203.72279616689994 L 505 203.20887741841517 L 506 202.71025490322447 L 507 202.2269669884653 L 508 201.75905086133506 L 509 201.3065425262293 L 510 200.8694768019718 L 511 200.44788731913528 L 512 200.0418065174534 L 513 199.6512656433249 L 514 199.27629474740917 L 515 198.91692268231412 L 516 198.57317710037583 L 517 198.2450844515311 L 518 197.93266998128195 L 519 197.63595772875334 L 520 197.35497052484314 L 521 197.0897299904657 L 522 196.84025653488803 L 523 196.60656935415926 L 524 196.38868642963394 L 525 196.18662452658802 L 526 196.0003991929292 L 527 195.83002475800026 L 528 195.6755143314767 L 529 195.53687980235787 L 530 195.4141318380522 L 531 195.30727988355648 L 532 195.21633216072885 L 533 195.14129566765638 L 534 195.08217617811658 L 535 195.03897824113298 L 536 195.01170518062528 L 537 195.0003590951535 L 538 195.0049408577564 L 539 195.02545011588452 L 540 195.0618852914272 L 541 195.11424358083394 L 542 195.1825209553302 L 543 195.26671216122745 L 544 195.36681072032727 L 545 195.48280893041996 L 546 195.61469786587725 L 547 195.76246737833873 L 548 195.92610609749332 L 549 196.10560143195357 L 550 196.30093957022495 L 551 196.51210548176837 L 552 196.73908291815684 L 553 196.98185441432565 L 554 197.2404012899162 L 555 197.5147036507136 L 556 197.80474039017724 L 557 198.1104891910649 L 558 198.43192652714993 L 559 198.76902766503179 L 560 199.12176666603884 L 561 199.49011638822432 L 562 199.874048488455 L 563 200.27353342459188 L 564 200.68854045776342 L 565 201.11903765473076 L 566 201.56499189034488 L 567 202.02636885009554 L 568 202.5031330327514 L 569 202.99524775309195 L 570 203.50267514473035 L 571 204.02537616302678 L 572 204.56331058809306 L 573 205.11643702788749 L 574 205.68471292139938 L 575 206.26809454192448 L 576 206.86653700042916 L 577 207.47999424900485 L 578 208.10841908441088 L 579 208.75176315170677 L 580 209.40997694797315 L 581 210.08300982612042 L 582 210.77080999878606 L 583 211.47332454231955 L 584 212.19049940085463 L 585 212.92227939046853 L 586 213.6686082034283 L 587 214.42942841252338 L 588 215.20468147548473 L 589 215.99430773948896 L 590 216.7982464457486 L 591 217.61643573418752 L 592 218.44881264820043 L 593 219.2953131394973 L 594 220.15587207303162 L 595 221.03042323201262 L 596 221.9188993229998 L 597 222.8212319810813 L 598 223.7373517751344 L 599 224.66718821316778 L 600 225.61066974774553 L 601 226.56772378149265 L 602 227.53827667268135 L 603 228.52225374089693 L 604 229.51957927278454 L 605 230.53017652787523 L 606 231.55396774449034 L 607 232.59087414572525 L 608 233.64081594551095 L 609 234.70371235475343 L 610 235.77948158754978 L 611 236.86804086748137 L 612 237.96930643398366 L 613 239.08319354879052 L 614 240.20961650245502 L 615 241.34848862094424 L 616 242.49972227230882 L 617 243.6632288734255 L 618 244.83891889681345 L 619 246.02670187752298 L 620 247.22648642009696 L 621 248.43818020560252 L 622 249.6616899987352 L 623 250.8969216549932 L 624 252.143780127921 L 625 253.40216947642293 L 626 254.6719928721456 L 627 255.95315260692888 L 628 257.2455501003232 L 629 258.54908590717565 L 630 259.8636597252821 L 631 261.1891704031043 L 632 262.5255159475538 L 633 263.87259353183936 L 634 265.23029950338014 L 635 266.5985293917799 L 636 267.9771779168666 L 637 269.36613899679344 L 638 270.76530575620063 L 639 272.1745705344397 L 640 273.5938248938572 L 641 275.0229596281393 L 642 276.4618647707138 L 643 277.9104296032123 L 644 279.36854266398916 L 645 280.8360917566989 L 646 282.3129639589281 L 647 283.79904563088485 L 648 285.29422242414364 L 649 286.7983792904429 L 650 288.3114004905382 L 651 289.83316960310736 L 652 291.3635695337099 L 653 292.9024825237955 L 654 294.4497901597658 L 655 296.0053733820864 L 656 297.56911249444676 L 657 299.1408871729716 L 658 300.72057647547837 L 659 302.3080588507846 L 660 303.9032121480594 L 661 305.5059136262231 L 662 307.11603996339227 L 663 308.7334672663679 L 664 310.35807108016905 L 665 311.98972639760905 L 666 313.6283076689148 L 667 315.2736888113865 L 668 316.92574321909973 L 669 318.5843437726478 L 670 320.2493628489219 L 671 321.9206723309323 L 672 323.59814361766576 L 673 325.28164763398183 L 674 326.9710548405435 L 675 328.6662352437855 L 676 330.3670584059165 L 677 332.0733934549567 L 678 333.7851090948064 L 679 335.50207361534973 L 680 337.2241549025896 L 681 338.95122044881225 L 682 340.6831373627842 L 683 342.41977237997696 L 684 344.16099187282236 L 685 345.90666186099327 L 686 347.6566480217138 L 687 349.4108157000951 L 688 351.1690299194957 L 689 352.93115539190813 L 690 354.69705652836836 L 691 356.46659744938984 L 692 358.2396419954175 L 693 360.0160537373056 L 694 361.7956959868156 L 695 363.57843180713314 L 696 365.3641240234053 L 697 367.1526352332952 L 698 368.94382781755576 L 699 370.7375639506174 L 700 372.5337056111943 L 701 374.332114592904 L 702 376.1326525149028 L 703 377.93518083253247 L 704 379.7395608479811 L 705 381.5456537209564 L 706 383.35332047936737 L 707 385.1624220300185 L 708 386.9728191693124 L 709 388.7843725939615 L 710 390.59694291170575 L 711 392.410390652039 L 712 394.2245762769413 L 713 396.03936019161483 L 714 397.8546027552254 L 715 399.6701642916478 L 716 401.48590510021324 L 717 403.3016854664582 L 718 405.11736567287534 L 719 406.93280600966483 L 720 408.7478667854833 L 721 410.5624083381934 L 722 412.3762910456098 L 723 414.1893753362434 L 724 416.00152170004 L 725 417.81259069911493 L 726 419.62244297848355 L 727 421.4309392767827 L 728 423.2379404369869 L 729 425.04330741711595 L 730 426.84690130093406 L 731 428.64858330863825 L 732 430.4482148075372 L 733 432.2456573227186 L 734 434.04077254770465 L 735 435.83342235509326 L 736 437.62346880718724 L 737 439.41077416660806 L 738 441.1952009068937 L 739 442.97661172308125 L 740 444.75486954227165 L 741 446.52983753417783 L 742 448.30137912165185 L 743 450.06935799119503 L 744 451.8336381034469 L 745 453.594083703652 L 746 455.35055933210646 L 747 457.1029298345807 L 748 458.8510603727197 L 749 460.59481643441734 L 750 462.3340638441672 L 751 464.06866877338706 L 752 465.7984977507159 L 753 467.5234176722844 L 754 469.2432958119566 L 755 470.9579998315433 L 756 472.66739779098396 L 757 474.3713581584997 L 758 476.0697498207137 L 759 477.76244209274097 L 760 479.4493047282425 L 761 481.13020792944826 L 762 482.8050223571446 L 763 484.47361914062594 L 764 486.1358698876113 L 765 487.79164669412324 L 766 489.4408221543303 L 767 491.08326937034957 L 768 492.7188619620112 L 769 494.34747407658364 L 770 495.9689803984564 L 771 497.58325615878334 L 772 499.1901771450828 L 773 500.7896197107961 L 774 502.3814607848003 L 775 503.96557788087904 L 776 505.5418491071475 L 777 507.1101531754309 L 778 508.6703694105974 L 779 510.22237775984365 L 780 511.7660588019329 L 781 513.301293756383 L 782 514.8279644926065 L 783 516.3459535390015 L 784 517.8551440919886 L 785 519.355420025 L 786 520.8466658974143 L 787 522.3287669634401 L 788 523.8016091809441 L 789 525.2650792202269 L 790 526.7190644727428 L 791 528.163453059766 L 792 529.5981338409972 L 793 531.0229964231165 L 794 532.4379311682785 L 795 533.842829202547 L 796 535.2375824242732 L 797 536.622083512414 L 798 537.9962259347893 L 799 539.35990395628 L 800 540.713012646963 L 801 542.0554478901861 L 802 543.3871063905788 L 803 544.7078856820006 L 804 546.0176841354252 L 805 547.3164009667614 L 806 548.6039362446066 L 807 549.8801908979375 L 808 551.1450667237324 L 809 552.3984663945278 L 810 553.6402934659072 L 811 554.8704523839228 L 812 556.0888484924476 L 813 557.2953880404581 L 814 558.4899781892494 L 815 559.6725270195777 L 816 560.8429435387344 L 817 562.001137687546 L 818 563.147020347305 L 819 564.2805033466271 L 820 565.4014994682354 L 821 566.5099224556715 L 822 567.6056870199324 L 823 568.6887088460338 L 824 569.7589045994973 L 825 570.8161919327628 L 826 571.8604894915247 L 827 572.8917169209924 L 828 573.9097948720722 L 829 574.9146450074741 L 830 575.906190007739 L 831 576.8843535771879 L 832 577.8490604497929 L 833 578.800236394969 L 834 579.737808223285 L 835 580.6617037920956 L 836 581.5718520110928 L 837 582.4681828477757 L 838 583.3506273328389 L 839 584.2191175654804 L 840 585.0735867186253 L 841 585.9139690440685 L 842 586.7401998775334 L 843 587.5522156436481 L 844 588.3499538608366 L 845 589.1333531461274 L 846 589.9023532198755 L 847 590.6568949104019 L 848 591.3969201585459 L 849 592.1223720221326 L 850 592.8331946803548 L 851 593.5293334380679 L 852 594.2107347299984 L 853 594.8773461248655 L 854 595.5291163294162 L 855 596.1659951923709 L 856 596.7879337082836 L 857 597.3948840213119 L 858 597.9867994288994 L 859 598.5636343853697 L 860 599.1253445054306 L 861 599.6718865675891 L 862 600.2032185174785 L 863 600.7192994710922 L 864 601.2200897179316 L 865 601.7055507240602 L 866 602.1756451350697 L 867 602.6303367789533 L 868 603.06959066889 L 869 603.4933730059361 L 870 603.9016511816257 L 871 604.2943937804804 L 872 604.6715705824265 L 873 605.0331525651197 L 874 605.3791119061792 L 875 605.7094219853276 L 876 606.02405738644 L 877 606.322993899499 L 878 606.6062085224582 L 879 606.8736794630117 L 880 607.1253861402713 L 881 607.3613091863494 L 882 607.5814304478504 L 883 607.7857329872663 L 884 607.9742010842813 L 885 608.1468202369798 L 886 608.3035771629641 L 887 608.444459800375 L 888 608.5694573088203 L 889 608.6785600702095 L 890 608.7717596894934 L 891 608.8490489953094 L 892 608.9104220405351 L 893 608.9558741027438 L 894 608.9854016845695 L 895 608.9990025139753 L 896 608.9966755444281 L 897 608.9784209549796 L 898 608.9442401502521 L 899 608.8941357603308 L 900 608.8281116405609 L 901 608.7461728712516 L 902 608.6483257572846 L 903 608.5345778276294 L 904 608.4049378347638 L 905 608.2594157540001 L 906 608.0980227827182 L 907 607.9207713395035 L 908 607.7276750631916 L 909 607.5187488118186 L 910 607.2940086614781 L 911 607.053471905084 L 912 606.79715705104 L 913 606.5250838218153 L 914 606.2372731524272 L 915 605.9337471888302 L 916 605.6145292862118 L 917 605.2796440071954 L 918 604.9291171199509 L 919 604.5629755962109 L 920 604.1812476091959 L 921 603.7839625314471 L 922 603.3711509325647 L 923 602.9428445768574 L 924 602.4990764208969 L 925 602.0398806109832 L 926 601.565292480516 L 927 601.0753485472767 L 928 600.5700865106184 L 929 600.0495452485648 L 930 599.5137648148191 L 931 598.9627864356812 L 932 598.3966525068768 L 933 597.8154065902936 L 934 597.2190934106311 L 935 596.6077588519579 L 936 595.9814499541814 L 937 595.3402149094286 L 938 594.6841030583378 L 939 594.0131648862613 L 940 593.3274520193821 L 941 592.6270172207403 L 942 591.9119143861736 L 943 591.1821985401702 L 944 590.4379258316351 L 945 589.6791535295692 L 946 588.9059400186627 L 947 588.1183447948031 L 948 587.3164284604968 L 949 586.5002527202064 L 950 585.6698803756018 L 951 584.825375320729 L 952 583.9668025370934 L 953 583.0942280886585 L 954 582.2077191167646 L 955 581.3073438349611 L 956 580.3931715237577 L 957 579.4652725252947 L 958 578.5237182379288 L 959 577.568581110741 L 960 576.5999346379598 L 961 575.6178533533083 L 962 574.6224128242679 L 963 573.6136896462638 L 964 572.5917614367713 L 965 571.5567068293436 L 966 570.5086054675612 L 967 569.4475379989032 L 968 568.3735860685423 L 969 567.2868323130625 L 970 566.1873603541002 L 971 565.07525479191 L 972 563.9506011988549 L 973 562.8134861128225 L 974 561.6639970305647 L 975 560.5022224009668 L 976 559.328251618241 L 977 558.1421750150478 L 978 556.9440838555449 L 979 555.7340703283658 L 980 554.5122275395254 L 981 553.2786495052555 L 982 552.0334311447718 L 983 550.7766682729695 L 984 549.5084575930504 L 985 548.2288966890824 L 986 546.938084018491 L 987 545.6361189044833 L 988 544.3231015284038 L 989 542.9991329220286 L 990 541.6643149597897 L 991 540.3187503509363 L 992 538.9625426316319 L 993 537.5957961569874 L 994 536.2186160930321 L 995 534.8311084086198 L 996 533.4333798672772 L 997 532.025538018987 L 998 530.6076911919137 L 999 529.1799484840668 L 1000 527.7424197549074 L 1001 526.2952156168939 L 1002 524.8384474269716 L 1003 523.372227278003 L 1004 521.8966679901447 L 1005 520.4118831021641 L 1006 518.9179868627047 L 1007 517.415094221494 L 1008 515.9033208204991 L 1009 514.3827829850286 L 1010 512.8535977147808 L 1011 511.31588267484244 L 1012 509.76975618663397 L 1013 508.21533721880536 L 1014 506.6527453780817 L 1015 505.08210090006025 L 1016 503.50352463995887 L 1017 501.91713806331524 L 1018 500.32306323664295 L 1019 498.72142281803707 L 1020 497.1123400477369 L 1021 495.4959387386426 L 1022 493.8723432667889 L 1023 492.2416785617744 L 1024 490.6040700971479 L 1025 488.9596438807555 L 1026 487.30852644504364 L 1027 485.6508448373227 L 1028 483.98672660999193 L 1029 482.3162998107241 L 1030 480.6396929726135 L 1031 478.95703510428416 L 1032 477.2684556799653 L 1033 475.5740846295275 L 1034 473.8740523284851 L 1035 472.16848958796464 L 1036 470.4575276446393 L 1037 468.74129815063094 L 1038 467.0199331633788 L 1039 465.29356513548026 L 1040 463.5623269044974 L 1041 461.82635168273634 L 1042 460.0857730469968 L 1043 458.3407249282942 L 1044 456.5913416015541 L 1045 454.83775767527914 L 1046 453.0801080811935 L 1047 451.31852806385876 L 1048 449.55315317026805 L 1049 447.7841192394159 L 1050 446.01156239184616 L 1051 444.2356190191783 L 1052 442.45642577361104 L 1053 440.6741195574099 L 1054 438.8888375123713 L 1055 437.1007170092708 L 1056 435.30989563729247 L 1057 433.5165111934422 L 1058 431.7207016719448 L 1059 429.92260525362593 L 1060 428.1223602952784 L 1061 426.3201053190181 L 1062 424.51597900162426 L 1063 422.71012016386834 L 1064 420.9026677598331 L 1065 419.0937608662202 L 1066 417.28353867164907 L 1067 415.47214046594564 L 1068 413.65970562942664 L 1069 411.84637362217313 L 1070 410.0322839733003 L 1071 408.21757627022095 L 1072 406.4023901479047 L 1073 404.5868652781343 L 1074 402.7711413587568 L 1075 400.95535810293615 L 1076 399.1396552284019 L 1077 397.32417244669864 L 1078 395.50904945243536 L 1079 393.69442591253704 L 1080 391.88044145549765 L 1081 390.06723566063516 L 1082 388.2549480473535 L 1083 386.44371806440546 L 1084 384.63368507916334 L 1085 382.82498836689473 L 1086 381.01776710004617 L 1087 379.2121603375345 L 1088 377.40830701404536 L 1089 375.606345929345 L 1090 373.8064157375986 L 1091 372.0086549367016 L 1092 370.213201857623 L 1093 368.4201946537613 L 1094 366.62977129031435 L 1095 364.8420695336621 L 1096 363.05722694076803 L 1097 361.27538084859344 L 1098 359.49666836353 L 1099 357.72122635085 L 1100 355.9491914241753 L 1101 354.18069993496545 L 1102 352.4158879620246 L 1103 350.65489130103316 L 1104 348.8978454540971 L 1105 347.14488561932194 L 1106 345.39614668040997 L 1107 343.6517631962813 L 1108 341.9118693907204 L 1109 340.17659914204677 L 1110 338.4460859728155 L 1111 336.7204630395419 L 1112 334.99986312245596 L 1113 333.28441861528523 L 1114 331.57426151506786 L 1115 329.8695234119958 L 1116 328.1703354792897 L 1117 326.4768284631044 L 1118 324.7891326724706 L 1119 323.1073779692663 L 1120 321.4316937582254 L 1121 319.7622089769798 L 1122 318.0990520861387 L 1123 316.44235105940413 L 1124 314.7922333737223 L 1125 313.14882599947725 L 1126 311.512255390719 L 1127 309.8826474754344 L 1128 308.2601276458568 L 1129 306.64482074881806 L 1130 305.03685107614194 L 1131 303.43634235507955 L 1132 301.84341773879044 L 1133 300.25819979686537 L 1134 298.6808105058955 L 1135 297.11137124008644 L 1136 295.550002761919 L 1137 293.9968252128577 L 1138 292.4519581041044 L 1139 290.9155203074049 L 1140 289.38763004590044 L 1141 287.86840488503157 L 1142 286.3579617234916 L 1143 284.85641678423195 L 1144 283.36388560551944 L 1145 281.8804830320447 L 1146 280.4063232060874 L 1147 278.9415195587319 L 1148 277.4861848011397 L 1149 276.04043091587664 L 1150 274.60436914829637 L 1151 273.1781099979804 L 1152 271.76176321023485 L 1153 270.3554377676474 L 1154 268.95924188170034 L 1155 267.5732829844447 L 1156 266.19766772023326 L 1157 264.8325019375151 L 1158 263.47789068069085 L 1159 262.1339381820294 L 1160 260.8007478536486 L 1161 259.47842227955726 L 1162 258.16706320776217 L 1163 256.86677154243864 L 1164 255.57764733616662 L 1165 254.2997897822319 L 1166 253.03329720699284 L 1167 251.77826706231605 L 1168 250.53479591807658 L 1169 249.3029794547278 L 1170 248.0829124559388 L 1171 246.87468880130146 L 1172 245.6784014591066 L 1173 244.49414247919063 L 1174 243.3220029858518 L 1175 242.16207317083993 L 1176 241.01444228641552 L 1177 239.8791986384823 L 1178 238.75642957979258 L 1179 237.64622150322566 L 1180 236.54865983514043 L 1181 235.4638290288013 L 1182 234.39181255788125 L 1183 233.33269291003774 L 1184 232.28655158056597 L 1185 231.2534690661281 L 1186 230.23352485855932 L 1187 229.2267974387515 L 1188 228.2333642706134 L 1189 227.25330179511153 L 1190 226.28668542438743 L 1191 225.33358953595518 L 1192 224.39408746697825 L 1193 223.46825150862657 L 1194 222.55615290051423 L 1195 221.65786182521694 L 1196 220.77344740287313 L 1197 219.9029776858643 L 1198 219.04651965357917 L 1199 218.20413920725971 L 1200 217.3759011649303 L 1201 216.56186925641038 L 1202 215.76210611841003 L 1203 214.97667328971136 L 1204 214.20563120643263 L 1205 213.4490391973779 L 1206 212.70695547947233 L 1207 211.97943715328213 L 1208 211.26654019862136 L 1209 210.56831947024375 L 1210 209.88482869362272 L 1211 209.21612046081697 L 1212 208.56224622642364 L 1213 207.92325630361924 L 1214 207.29919986028813 L 1215 206.69012491523944 L 1216 206.09607833451165 L 1217 205.51710582776724 L 1218 204.9532519447749 L 1219 204.40456007198185 L 1220 203.87107242917523 L 1221 203.35283006623365 L 1222 202.8498728599685 L 1223 202.36223951105532 L 1224 201.88996754105634 L 1225 201.4330932895331 L 1226 200.99165191125027 L 1227 200.56567737347075 L 1228 200.15520245334176 L 1229 199.76025873537307 L 1230 199.3808766090065 L 1231 199.01708526627743 L 1232 198.66891269956898 L 1233 198.33638569945782 L 1234 198.01952985265277 L 1235 197.718369540026 L 1236 197.43292793473708 L 1237 197.1632270004499 L 1238 196.90928748964237 L 1239 196.67112894201006 L 1240 196.44876968296234 L 1241 196.24222682221247 L 1242 196.05151625246103 L 1243 195.87665264817292 L 1244 195.7176494644485 L 1245 195.5745189359879 L 1246 195.44727207614994 L 1247 195.33591867610454 L 1248 195.2404673040793 L 1249 195.16092530470019 L 1250 195.0972987984266 L 1251 195.04959268108018 L 1252 195.01781062346822 L 1253 195.00195507110112 L 1254 195.00202724400438 L 1255 195.01802713662457 L 1256 195.04995351782972 L 1257 195.09780393100434 L 1258 195.161574694238 L 1259 195.2412609006091 L 1260 195.3368564185621 L 1261 195.44835389237946 L 1262 195.57574474274764 L 1263 195.7190191674172 L 1264 195.87816614195717 L 1265 196.05317342060297 L 1266 196.24402753719937 L 1267 196.45071380623583 L 1268 196.67321632397716 L 1269 196.91151796968683 L 1270 197.16560040694463 L 1271 197.4354440850574 L 1272 197.7210282405634 L 1273 198.02233089883026 L 1274 198.3393288757454 L 1275 198.67199777950026 L 1276 199.02031201246697 L 1277 199.38424477316832 L 1278 199.7637680583396 L 1279 200.15885266508357 L 1280 200.56946819311773 L 1281 200.9955830471131 L 1282 201.43716443912552 L 1283 201.89417839111866 L 1284 202.36658973757838 L 1285 202.85436212821864 L 1286 203.35745803077856 L 1287 203.87583873391011 L 1288 204.40946435015752 L 1289 204.9582938190255 L 1290 205.5222849101394 L 1291 206.10139422649434 L 1292 206.69557720779466 L 1293 207.3047881338825 L 1294 207.92898012825577 L 1295 208.56810516167556 L 1296 209.22211405586108 L 1297 209.89095648727437 L 1298 210.57458099099208 L 1299 211.2729349646658 L 1300 211.9859646725695 L 1301 212.71361524973415 L 1302 213.4558307061699 L 1303 214.21255393117357 L 1304 214.98372669772354 L 1305 215.76928966696005 L 1306 216.56918239275103 L 1307 217.3833433263433 L 1308 218.2117098210982 L 1309 219.05421813731292 L 1310 219.9108034471238 L 1311 220.7813998394953 L 1312 221.66594032529156 L 1313 222.5643568424309 L 1314 223.47658026112285 L 1315 224.4025403891874 L 1316 225.34216597745666 L 1317 226.29538472525618 L 1318 227.26212328596884 L 1319 228.24230727267854 L 1320 229.23586126389392 L 1321 230.24270880935185 L 1322 231.2627724358996 L 1323 232.29597365345714 L 1324 233.34223296105534 L 1325 234.40146985295402 L 1326 235.47360282483655 L 1327 236.55854938008105 L 1328 237.65622603610842 L 1329 238.76654833080565 L 1330 239.88943082902586 L 1331 241.02478712916076 L 1332 242.17252986978994 L 1333 243.3325707364027 L 1334 244.50482046819351 L 1335 245.6891888649304 L 1336 246.8855847938952 L 1337 248.09391619689683 L 1338 249.31409009735336 L 1339 250.54601260744738 L 1340 251.7895889353497 L 1341 253.04472339251365 L 1342 254.3113194010376 L 1343 255.58927950109643 L 1344 256.8785053584405 L 1345 258.17889777196297 L 1346 259.4903566813316 L 1347 260.81278117468895 L 1348 262.1460694964167 L 1349 263.4901190549659 L 1350 264.84482643075035 L 1351 266.21008738410467 L 1352 267.58579686330575 L 1353 268.97184901265496 L 1354 270.368137180624 L 1355 271.7745539280611 L 1356 273.19099103645834 L 1357 274.6173395162786 L 1358 276.05348961534133 L 1359 277.499330827269 L 1360 278.95475189998825 L 1361 280.4196408442917 L 1362 281.8938849424545 L 1363 283.3773707569078 L 1364 284.8699841389673 L 1365 286.3716102376161 L 1366 287.8821335083434 L 1367 289.4014377220334 L 1368 290.92940597391 L 1369 292.4659206925315 L 1370 294.0108636488378 L 1371 295.56411596524737 L 1372 297.1255581248042 L 1373 298.69506998037525 L 1374 300.27253076389394 L 1375 301.85781909565344 L 1376 303.4508129936465 L 1377 305.0513898829513 L 1378 306.65942660516333 L 1379 308.2747994278714 L 1380 309.89738405417984 L 1381 311.52705563227073 L 1382 313.1636887650119 L 1383 314.8071575196058 L 1384 316.45733543727926 L 1385 318.11409554301395 L 1386 319.7773103553168 L 1387 321.4468518960298 L 1388 323.1225917001762 L 1389 324.80440082584624 L 1390 326.4921498641186 L 1391 328.1857089490178 L 1392 329.88494776750724 L 1393 331.58973556951554 L 1394 333.29994117799885 L 1395 335.0154329990324 L 1396 336.7360790319374 L 1397 338.4617468794378 L 1398 340.1923037578477 L 1399 341.9276165072885 L 1400 343.66755160193526 L 1401 345.4119751602903 L 1402 347.16075295548666 L 1403 348.91375042561407 L 1404 350.67083268407436 L 1405 352.43186452996014 L 1406 354.1967104584582 L 1407 355.96523467127577 L 1408 357.73730108708963 L 1409 359.51277335201826 L 1410 361.29151485011175 L 1411 363.07338871386537 L 1412 364.8582578347504 L 1413 366.64598487376446 L 1414 368.43643227199897 L 1415 370.2294622612235 L 1416 372.024936874488 L 1417 373.82271795673677 L 1418 375.6226671754402 L 1419 377.42464603123864 L 1420 379.22851586859963 L 1421 381.03413788648663 L 1422 382.84137314903893 L 1423 384.650082596264 L 1424 386.46012705473504 L 1425 388.27136724830143 L 1426 390.08366380880545 L 1427 391.89687728680576 L 1428 393.7108681623075 L 1429 395.5254968554979 L 1430 397.3406237374874 L 1431 399.15610914105173 L 1432 400.9718133713799 L 1433 402.78759671682315 L 1434 404.60331945964504 L 1435 406.41884188677244 L 1436 408.2340243005451 L 1437 410.048727029467 L 1438 411.8628104389506 L 1439 413.6761349420633 L 1440 415.4885610102674 L 1441 417.2999491841564 L 1442 419.1101600841859 L 1443 420.9190544213981 L 1444 422.72649300814055 L 1445 424.5323367687746 L 1446 426.33644675037766 L 1447 428.138684133435 L 1448 429.9389102425214 L 1449 431.73698655697154 L 1450 433.53277472153854 L 1451 435.3261365570411 L 1452 437.1169340709937 L 1453 438.90502946822625 L 1454 440.6902851614864 L 1455 442.4725637820264 L 1456 444.2517281901731 L 1457 446.0276414858803 L 1458 447.8001670192625 L 1459 449.5691684011109 L 1460 451.33450951338574 L 1461 453.0960545196918 L 1462 454.85366787573 L 1463 456.6072143397271 L 1464 458.3565589828419 L 1465 460.10156719954716 L 1466 461.8421047179888 L 1467 463.5780376103148 L 1468 465.3092323029826 L 1469 467.03555558703613 L 1470 468.7568746283561 L 1471 470.473056977881 L 1472 472.1839705817981 L 1473 473.8894837917061 L 1474 475.58946537474264 L 1475 477.28378452368383 L 1476 478.97231086700884 L 1477 480.6549144789316 L 1478 482.3314658893979 L 1479 484.00183609404775 L 1480 485.6658965641426 L 1481 487.32351925645355 L 1482 488.9745766231147 L 1483 490.6189416214376 L 1484 492.2564877236865 L 1485 493.88708892681416 L 1486 495.51061976215703 L 1487 497.1269553050908 L 1488 498.7359711846412 L 1489 500.3375435930549 L 1490 501.9315492953257 L 1491 503.51786563867745 L 1492 505.09637056200114 L 1493 506.6669426052471 L 1494 508.229460918772 L 1495 509.7838052726361 L 1496 511.32985606585527 L 1497 512.8674943356043 L 1498 514.3966017663697 L 1499 515.9170606990546 L 1500 517.4287541400311 L 1501 518.931565770144 L 1502 520.4253799536596 L 1503 521.9100817471639 L 1504 523.3855569084077 L 1505 524.8516919050963 L 1506 526.308373923626 L 1507 527.755490877764 L 1508 529.1929314172742 L 1509 530.6205849364835 L 1510 532.0383415827939 L 1511 533.4460922651348 L 1512 534.8437286623567 L 1513 536.231143231567 L 1514 537.6082292164042 L 1515 538.9748806552525 L 1516 540.3309923893962 L 1517 541.6764600711099 L 1518 543.0111801716882 L 1519 544.3350499894119 L 1520 545.6479676574506 L 1521 546.9498321517008 L 1522 548.2405432985589 L 1523 549.5200017826309 L 1524 550.7881091543718 L 1525 552.044767837663 L 1526 553.2898811373194 L 1527 554.52335324653 L 1528 555.7450892542296 L 1529 556.9549951524025 L 1530 558.1529778433157 L 1531 559.3389451466824 L 1532 560.5128058067544 L 1533 561.6744694993449 L 1534 562.8238468387783 L 1535 563.9608493847672 L 1536 565.0853896492188 L 1537 566.1973811029665 L 1538 567.296738182427 L 1539 568.3833762961856" stroke-linecap="round" stroke-linejoin="round" stroke-miterlimit="10" stroke-width="13"/></g></svg>